<svg width="29" height="29" viewBox="0 0 29 29" fill="none" xmlns="http://www.w3.org/2000/svg">
<rect x="1" y="1" width="27.2706" height="27.2706" rx="13.6353" fill="white" stroke="#EBEBEB" stroke-width="0.717647"/>
<path d="M14.0574 14.0579C13.8073 14.308 13.6669 14.6471 13.667 15.0008C13.6671 15.3544 13.8076 15.6935 14.0577 15.9435C14.3078 16.1935 14.647 16.334 15.0006 16.3339C15.3542 16.3338 15.6933 16.1933 15.9434 15.9432" stroke="#B0B0B0" stroke-linecap="round" stroke-linejoin="round"/>
<path d="M18.1207 18.1154C17.1855 18.7005 16.1031 19.0073 15 19C12.6 19 10.6 17.6667 9 15C9.848 13.5867 10.808 12.548 11.88 11.884M13.7867 11.12C14.186 11.0392 14.5925 10.999 15 11C17.4 11 19.4 12.3334 21 15C20.556 15.74 20.0807 16.378 19.5747 16.9134" stroke="#B0B0B0" stroke-linecap="round" stroke-linejoin="round"/>
<path d="M9 9L21 21" stroke="#B0B0B0" stroke-linecap="round" stroke-linejoin="round"/>
</svg>
