<svg width="29" height="29" viewBox="0 0 29 29" fill="none" xmlns="http://www.w3.org/2000/svg">
<rect x="1" y="1" width="27.2706" height="27.2706" rx="13.6353" fill="white" stroke="#EBEBEB" stroke-width="0.717647"/>
<path d="M13.5 15C13.5 15.3978 13.658 15.7794 13.9393 16.0607C14.2206 16.342 14.6022 16.5 15 16.5C15.3978 16.5 15.7794 16.342 16.0607 16.0607C16.342 15.7794 16.5 15.3978 16.5 15C16.5 14.6022 16.342 14.2206 16.0607 13.9393C15.7794 13.658 15.3978 13.5 15 13.5C14.6022 13.5 14.2206 13.658 13.9393 13.9393C13.658 14.2206 13.5 14.6022 13.5 15Z" stroke="black" stroke-width="1.125" stroke-linecap="round" stroke-linejoin="round"/>
<path d="M21.75 15C19.95 18 17.7 19.5 15 19.5C12.3 19.5 10.05 18 8.25 15C10.05 12 12.3 10.5 15 10.5C17.7 10.5 19.95 12 21.75 15Z" stroke="black" stroke-width="1.125" stroke-linecap="round" stroke-linejoin="round"/>
</svg>
