<svg width="14" height="14" viewBox="0 0 14 14" fill="none" xmlns="http://www.w3.org/2000/svg">
<g clip-path="url(#clip0_8_6594)">
<path d="M3.50016 8.58333H1.16683C1.01212 8.58333 0.863747 8.64479 0.75435 8.75418C0.644954 8.86358 0.583496 9.01195 0.583496 9.16666V13.8333C0.583496 13.988 0.644954 14.1364 0.75435 14.2458C0.863747 14.3552 1.01212 14.4167 1.16683 14.4167H3.50016C3.65487 14.4167 3.80325 14.3552 3.91264 14.2458C4.02204 14.1364 4.0835 13.988 4.0835 13.8333V9.16666C4.0835 9.01195 4.02204 8.86358 3.91264 8.75418C3.80325 8.64479 3.65487 8.58333 3.50016 8.58333ZM2.91683 13.25H1.75016V9.74999H2.91683V13.25ZM12.8335 6.24999H10.5002C10.3455 6.24999 10.1971 6.31145 10.0877 6.42085C9.97829 6.53025 9.91683 6.67862 9.91683 6.83333V13.8333C9.91683 13.988 9.97829 14.1364 10.0877 14.2458C10.1971 14.3552 10.3455 14.4167 10.5002 14.4167H12.8335C12.9882 14.4167 13.1366 14.3552 13.246 14.2458C13.3554 14.1364 13.4168 13.988 13.4168 13.8333V6.83333C13.4168 6.67862 13.3554 6.53025 13.246 6.42085C13.1366 6.31145 12.9882 6.24999 12.8335 6.24999ZM12.2502 13.25H11.0835V7.41666H12.2502V13.25ZM8.16683 1.58333H5.8335C5.67879 1.58333 5.53041 1.64479 5.42102 1.75418C5.31162 1.86358 5.25016 2.01195 5.25016 2.16666V13.8333C5.25016 13.988 5.31162 14.1364 5.42102 14.2458C5.53041 14.3552 5.67879 14.4167 5.8335 14.4167H8.16683C8.32154 14.4167 8.46991 14.3552 8.57931 14.2458C8.6887 14.1364 8.75016 13.988 8.75016 13.8333V2.16666C8.75016 2.01195 8.6887 1.86358 8.57931 1.75418C8.46991 1.64479 8.32154 1.58333 8.16683 1.58333ZM7.5835 13.25H6.41683V2.74999H7.5835V13.25Z" fill="black"/>
</g>
<defs>
<clipPath id="clip0_8_6594">
<rect width="14" height="14" fill="white"/>
</clipPath>
</defs>
</svg>
