<svg width="106" height="74" viewBox="0 0 106 74" fill="none" xmlns="http://www.w3.org/2000/svg">
<g clip-path="url(#clip0_175_4229)">
<path d="M105.023 52.5933C104.65 51.704 104.278 50.742 103.907 49.9255C103.31 48.5936 102.715 47.3325 102.196 46.1482L102.123 46.0734C96.9869 34.9577 91.4838 23.7047 85.6803 12.5951L85.459 12.1484C84.85 10.9964 84.2559 9.83568 83.6767 8.66617C82.9317 7.3323 82.1868 5.92768 80.9972 4.5938C79.8747 3.1648 78.4406 2.00865 76.8032 1.2128C75.1658 0.41694 73.3681 0.00221914 71.546 0C67.8251 0 64.4778 1.63097 62.0216 4.44627C61.001 5.7165 60.1044 7.08082 59.3442 8.52066C58.7636 9.68882 58.1688 10.8489 57.5599 12.0009L57.3366 12.4475C55.8859 15.2648 54.4446 18.0889 53.0129 20.9197C51.6055 18.1414 50.1791 15.3672 48.7338 12.5971L48.5146 12.1484C47.9056 10.9964 47.3108 9.83568 46.7303 8.66617C45.9853 7.3323 45.2424 5.92768 44.0528 4.5938C42.93 3.16465 41.4955 2.00841 39.8578 1.21256C38.22 0.416702 36.4219 0.00206193 34.5995 0C30.8787 0 27.5314 1.63097 25.0772 4.44627C23.9608 5.78014 23.1427 7.18678 22.3977 8.52066C21.8185 9.68882 21.2244 10.8489 20.6155 12.0009L20.3901 12.4475C14.6617 23.5632 9.0815 34.8163 3.94786 45.9279L3.87072 46.0754C3.35106 47.2618 2.7563 48.5209 2.1595 49.8527C1.7887 50.6611 1.41723 51.5497 1.04508 52.5185C0.078842 55.257 -0.217525 57.85 0.153949 60.5177C0.552587 63.2279 1.6545 65.7876 3.35083 67.944C5.04717 70.1004 7.27922 71.7789 9.82648 72.8137C11.7338 73.6119 13.7843 74.0156 15.8533 74C16.4998 73.9874 17.1451 73.9374 17.7858 73.8504C20.4107 73.522 22.9419 72.6689 25.2274 71.3423C28.2723 69.6386 31.1791 67.1932 34.4534 63.6382L37.1471 60.7663C37.562 63.31 38.598 65.7133 40.1643 67.7649C41.7305 69.8166 43.7789 71.4538 46.1294 72.5327C46.3426 72.6318 46.5578 72.7247 46.777 72.8137C48.6843 73.6119 50.7348 74.0156 52.8038 74H53.0596C55.1238 74.0209 57.17 73.617 59.0701 72.8137C59.3036 72.7207 59.533 72.6237 59.7583 72.5166C62.1235 71.4271 64.1809 69.7715 65.7468 67.6975C67.3128 65.6235 68.3385 63.1957 68.7325 60.6309L71.3978 63.6301C74.67 67.1851 77.6459 69.6305 80.6217 71.3343C82.907 72.6628 85.4381 73.5186 88.0634 73.8504C88.7047 73.9384 89.3506 73.9884 89.9979 74C92.0641 74.0218 94.1126 73.6178 96.0145 72.8137C98.5637 71.7818 100.798 70.1042 102.494 67.9473C104.191 65.7903 105.292 63.229 105.687 60.5177C106.286 57.9247 105.99 55.3338 105.023 52.5933ZM41.4099 44.8163C41.2353 45.1862 41.0648 45.556 40.8943 45.9259L40.8192 46.0734C40.3807 47.0718 39.8895 48.1207 39.3982 49.2222C37.9725 51.7567 36.3432 54.1722 34.5265 56.4453L31.4004 60.2853C28.3555 63.6948 25.5969 65.9907 22.9194 67.4721C21.1883 68.4948 19.2637 69.1506 17.2661 69.3981C15.3487 69.6105 13.4081 69.3567 11.6108 68.6584C9.81958 67.9291 8.2518 66.7449 7.06391 65.2239C5.87602 63.7029 5.10956 61.8983 4.84102 59.9902C4.59632 58.0386 4.82606 56.0569 5.51089 54.2121C5.73418 53.4724 6.10768 52.7307 6.47916 51.8434C6.99881 50.6571 7.59358 49.396 8.18834 48.1369L8.26548 47.9914C13.3971 36.9626 18.9002 25.7055 24.6286 14.7535L24.8519 14.3069C25.4487 13.1973 26.0435 12.011 26.6382 10.8994C27.1996 9.73052 27.8995 8.63271 28.7229 7.62939C29.4562 6.77043 30.3683 6.08047 31.396 5.60729C32.4237 5.13412 33.5424 4.88904 34.6746 4.88904C35.8069 4.88904 36.9256 5.13412 37.9533 5.60729C38.981 6.08047 39.8931 6.77043 40.6263 7.62939C41.4462 8.63125 42.1452 9.72536 42.709 10.8893C43.3058 12.0009 43.9006 13.1872 44.4933 14.2968L44.7166 14.7434C46.6477 18.5066 48.5532 22.2832 50.4328 26.0733C49.0038 28.9432 47.5964 31.8144 46.2106 34.6869C44.5745 38.0701 42.9743 41.4466 41.4099 44.8163ZM64.2078 59.9255C63.9408 61.833 63.1759 63.6374 61.9894 65.1584C60.8029 66.6795 59.2363 67.864 57.4462 68.5937C55.6558 69.3185 53.7085 69.5732 51.7909 69.3334C50.0808 69.1243 48.4224 68.6109 46.8947 67.8177C45.5204 66.9669 44.3508 65.8257 43.4689 64.4747C42.587 63.1237 42.0143 61.5962 41.7915 60.0003C41.5458 58.0487 41.7755 56.0668 42.4614 54.2222C42.7193 53.477 43.016 52.7458 43.3505 52.0314C43.3769 51.9728 43.4033 51.9142 43.4276 51.8536C43.9493 50.6672 44.542 49.4061 45.1388 48.147L45.2139 48.0015C45.4129 47.573 45.6159 47.1439 45.8229 46.7141C48.1817 41.6615 50.6155 36.5726 53.1123 31.4876C55.3655 36.0956 57.5809 40.7204 59.7583 45.362L61.0249 48.0742V48.149C61.6217 49.3354 62.1414 50.6672 62.7382 51.8536C62.9148 52.278 63.0934 52.662 63.2517 53.0399C63.4257 53.4255 63.5769 53.821 63.7044 54.2242C64.2829 56.1482 64.5062 58.0036 64.2078 59.9255ZM101.152 59.9255C100.885 61.8328 100.119 63.6369 98.933 65.1579C97.7466 66.6788 96.1804 67.8635 94.3906 68.5937C92.6003 69.3186 90.6529 69.5733 88.7353 69.3334C86.738 69.0847 84.8136 68.4291 83.082 67.4074C80.4045 65.924 77.7271 63.6301 74.601 60.2226L71.477 56.4453C69.8046 54.375 68.2914 52.182 66.9502 49.8851C66.3595 48.5674 65.7709 47.3204 65.2573 46.1482L65.1822 46.0734L64.5245 44.6587C62.9818 41.3375 61.4072 38.0068 59.8009 34.6667C58.4557 31.8683 57.0876 29.0685 55.6964 26.2673C57.6248 22.4072 59.5871 18.5672 61.5832 14.7475L61.8064 14.3008C62.4012 13.1913 62.996 12.0049 63.5907 10.8933C64.1508 9.72739 64.8479 8.63173 65.6673 7.62939C66.4006 6.77043 67.3127 6.08047 68.3404 5.60729C69.3681 5.13412 70.4868 4.88904 71.619 4.88904C72.7513 4.88904 73.87 5.13412 74.8977 5.60729C75.9254 6.08047 76.8375 6.77043 77.5708 7.62939C78.3913 8.63076 79.0903 9.72495 79.6534 10.8893C80.2502 12.0009 80.845 13.1872 81.4398 14.2968L81.663 14.7535C87.3062 25.7533 92.7369 36.8602 97.9551 48.0742V48.149C98.5519 49.3354 99.0716 50.6672 99.6684 51.8536C100.04 52.7428 100.411 53.4825 100.635 54.2242C101.229 56.1482 101.453 58.0036 101.154 59.9255H101.152Z" fill="white"/>
</g>
<defs>
<clipPath id="clip0_175_4229">
<rect width="106" height="74" fill="white"/>
</clipPath>
</defs>
</svg>
