<svg width="14" height="14" viewBox="0 0 14 14" fill="none" xmlns="http://www.w3.org/2000/svg">
<g clip-path="url(#clip0_8_6598)">
<path d="M13.1841 1.20283C13.1578 1.10292 13.1054 1.01178 13.0324 0.938725C12.9593 0.865666 12.8682 0.813303 12.7683 0.786982C11.5716 0.476176 10.3115 0.509651 9.13309 0.883555C7.95465 1.25746 6.90576 1.95658 6.10721 2.90043L5.45683 3.67267L3.93737 3.30605C3.56796 3.17727 3.16444 3.1865 2.80131 3.33204C2.43819 3.47758 2.13999 3.7496 1.96178 4.09786L0.678336 6.3728C0.633366 6.45249 0.607773 6.54163 0.603627 6.63304C0.59948 6.72444 0.616896 6.81554 0.654466 6.89897C0.692036 6.9824 0.748707 7.05582 0.8199 7.11329C0.891092 7.17077 0.974807 7.21069 1.06428 7.22984L2.85672 7.61407C2.70488 8.07627 2.59646 8.55163 2.53287 9.03396C2.52134 9.12257 2.53032 9.21265 2.55911 9.29724C2.5879 9.38183 2.63573 9.45868 2.69892 9.52187L4.50731 11.3303C4.56146 11.3844 4.62575 11.4274 4.69651 11.4568C4.76728 11.4861 4.84313 11.5012 4.91973 11.5012C4.93654 11.5012 4.95334 11.5003 4.97043 11.4989C5.46355 11.4546 5.95067 11.3588 6.42385 11.2131L6.79933 12.9649C6.81851 13.0544 6.85846 13.1381 6.91595 13.2092C6.97344 13.2804 7.04685 13.337 7.13027 13.3746C7.21369 13.4122 7.30477 13.4296 7.39616 13.4255C7.48755 13.4213 7.57669 13.3958 7.65639 13.3509L9.93446 12.066C10.2551 11.8712 10.5055 11.5795 10.6497 11.2332C10.7939 10.8868 10.8243 10.5036 10.7365 10.1388L10.3465 8.52941L11.0681 7.86586C12.0155 7.06955 12.7173 6.0206 13.0919 4.84106C13.4665 3.66151 13.4985 2.39985 13.1841 1.20283ZM2.08398 6.25517L2.99173 4.64531C3.04811 4.53601 3.14417 4.45244 3.26021 4.41171C3.37625 4.37098 3.50347 4.37619 3.61579 4.42627L4.61762 4.66905L4.23845 5.11926C3.87897 5.5501 3.56806 6.01923 3.31135 6.51817L2.08398 6.25517ZM9.35827 11.0514L7.77404 11.9449L7.5235 10.7755C8.03136 10.5223 8.50451 10.2047 8.93131 9.83062L9.36503 9.43182L9.60037 10.4028C9.6309 10.5227 9.62407 10.6491 9.5808 10.765C9.53753 10.8809 9.45989 10.9809 9.35827 11.0514ZM10.2999 6.98833L8.15059 8.96364C7.29983 9.69938 6.25045 10.167 5.13451 10.3078L3.732 8.90524C3.92037 7.7864 4.40384 6.73808 5.13252 5.86841L6.11155 4.70601C6.12786 4.68895 6.14308 4.67088 6.15712 4.6519L6.99417 3.65808C7.61307 2.92711 8.41488 2.37347 9.31771 2.05371C10.2206 1.73395 11.1921 1.65952 12.1331 1.83801C12.3159 2.78198 12.2423 3.75769 11.9199 4.66352C11.5974 5.56935 11.038 6.37216 10.2999 6.98833ZM9.7615 3.39281C9.58844 3.39281 9.41927 3.44413 9.27538 3.54027C9.13148 3.63642 9.01933 3.77307 8.95311 3.93296C8.88688 4.09285 8.86955 4.26878 8.90331 4.43851C8.93708 4.60825 9.02041 4.76416 9.14278 4.88653C9.26515 5.0089 9.42106 5.09223 9.5908 5.126C9.76053 5.15976 9.93646 5.14243 10.0963 5.0762C10.2562 5.00998 10.3929 4.89782 10.489 4.75393C10.5852 4.61004 10.6365 4.44087 10.6365 4.26781C10.6365 4.1529 10.6139 4.03911 10.5699 3.93294C10.5259 3.82678 10.4615 3.73031 10.3802 3.64906C10.299 3.56781 10.2025 3.50335 10.0963 3.45938C9.99018 3.41541 9.87639 3.39279 9.76148 3.3928L9.7615 3.39281Z" fill="black"/>
</g>
<defs>
<clipPath id="clip0_8_6598">
<rect width="14" height="14" fill="white"/>
</clipPath>
</defs>
</svg>
