<svg width="50" height="50" viewBox="0 0 50 50" fill="none" xmlns="http://www.w3.org/2000/svg">
<g clip-path="url(#clip0_100_50171)">
<path d="M24.9976 6.25C29.8639 10.5554 36.2153 12.797 42.706 12.5C43.6509 15.7146 43.9401 19.0864 43.5562 22.415C43.1723 25.7435 42.1233 28.961 40.4714 31.8761C38.8195 34.7912 36.5984 37.3445 33.9402 39.3843C31.282 41.4241 28.2409 42.9087 24.9976 43.75C21.7543 42.9087 18.7132 41.4241 16.055 39.3843C13.3968 37.3445 11.1758 34.7912 9.52386 31.8761C7.87196 28.961 6.8229 25.7435 6.43903 22.415C6.05516 19.0864 6.3443 15.7146 7.28929 12.5C13.78 12.797 20.1313 10.5554 24.9976 6.25Z" stroke="black" stroke-width="3.125" stroke-linecap="round" stroke-linejoin="round"/>
<g clip-path="url(#clip1_100_50171)">
<path d="M25.2006 27.8175L23.0286 28.9555C22.9642 28.989 22.8917 29.004 22.8192 28.9987C22.7467 28.9934 22.6771 28.9681 22.6182 28.9256C22.5593 28.8831 22.5134 28.825 22.4855 28.7579C22.4577 28.6907 22.4491 28.6172 22.4606 28.5455L22.8756 26.1345L21.1186 24.4275C21.0662 24.3768 21.0291 24.3123 21.0115 24.2416C20.9939 24.1708 20.9966 24.0965 21.0192 24.0271C21.0418 23.9578 21.0835 23.8962 21.1394 23.8494C21.1954 23.8026 21.2634 23.7725 21.3356 23.7625L23.7636 23.4105L24.8496 21.2175C24.8821 21.1521 24.9322 21.0972 24.9942 21.0588C25.0562 21.0204 25.1277 21 25.2006 21C25.2736 21 25.3451 21.0204 25.4071 21.0588C25.4691 21.0972 25.5191 21.1521 25.5516 21.2175L26.6376 23.4105L29.0656 23.7625C29.1377 23.7728 29.2054 23.8031 29.2611 23.85C29.3168 23.8968 29.3583 23.9583 29.3809 24.0275C29.4034 24.0967 29.4062 24.1708 29.3888 24.2415C29.3715 24.3122 29.3347 24.3766 29.2826 24.4275L27.5256 26.1345L27.9396 28.5445C27.9521 28.6163 27.9441 28.6902 27.9166 28.7578C27.8891 28.8254 27.8433 28.8839 27.7842 28.9267C27.7252 28.9695 27.6553 28.9949 27.5825 29C27.5098 29.005 27.4371 28.9896 27.3726 28.9555L25.2006 27.8175Z" stroke="black" stroke-width="1.5" stroke-linecap="round" stroke-linejoin="round"/>
</g>
</g>
<defs>
<clipPath id="clip0_100_50171">
<rect width="50" height="50" fill="white"/>
</clipPath>
<clipPath id="clip1_100_50171">
<rect width="24" height="24" fill="white" transform="translate(13 11)"/>
</clipPath>
</defs>
</svg>
