<svg width="13" height="13" viewBox="0 0 13 13" fill="none" xmlns="http://www.w3.org/2000/svg">
<path d="M8.50977 6.88461C9.04081 6.4668 9.42843 5.89386 9.61869 5.2455C9.80895 4.59713 9.79239 3.90559 9.57132 3.26707C9.35024 2.62856 8.93565 2.07482 8.38522 1.68291C7.83479 1.29099 7.17588 1.08038 6.50018 1.08038C5.82448 1.08038 5.16558 1.29099 4.61514 1.68291C4.06471 2.07482 3.65012 2.62856 3.42905 3.26707C3.20797 3.90559 3.19142 4.59713 3.38168 5.2455C3.57194 5.89386 3.95955 6.4668 4.4906 6.88461C3.58064 7.24917 2.78667 7.85384 2.19333 8.63415C1.59999 9.41446 1.22953 10.3412 1.12143 11.3154C1.11361 11.3866 1.11987 11.4586 1.13986 11.5273C1.15985 11.596 1.19318 11.6601 1.23795 11.7159C1.32836 11.8287 1.45986 11.9009 1.60351 11.9167C1.74717 11.9325 1.89123 11.8906 2.00398 11.8002C2.11674 11.7098 2.18896 11.5783 2.20476 11.4346C2.32371 10.3758 2.82859 9.39784 3.62297 8.68771C4.41734 7.97757 5.4455 7.585 6.51102 7.585C7.57653 7.585 8.60469 7.97757 9.39906 8.68771C10.1934 9.39784 10.6983 10.3758 10.8173 11.4346C10.832 11.5677 10.8955 11.6906 10.9955 11.7797C11.0956 11.8687 11.225 11.9175 11.3589 11.9167H11.4185C11.5605 11.9004 11.6903 11.8286 11.7796 11.717C11.8689 11.6053 11.9104 11.463 11.8952 11.3209C11.7866 10.3438 11.4141 9.41473 10.8177 8.63322C10.2213 7.85171 9.42351 7.24724 8.50977 6.88461ZM6.50018 6.50003C6.07166 6.50003 5.65275 6.37295 5.29645 6.13488C4.94014 5.8968 4.66243 5.55841 4.49844 5.16251C4.33445 4.7666 4.29155 4.33096 4.37515 3.91066C4.45875 3.49037 4.6651 3.10431 4.96812 2.8013C5.27113 2.49828 5.65719 2.29193 6.07749 2.20833C6.49778 2.12472 6.93342 2.16763 7.32933 2.33162C7.72524 2.49561 8.06362 2.77332 8.3017 3.12962C8.53978 3.48593 8.66685 3.90483 8.66685 4.33336C8.66685 4.908 8.43858 5.4591 8.03225 5.86543C7.62592 6.27175 7.07482 6.50003 6.50018 6.50003Z" fill="black"/>
</svg>
