<svg width="70" height="70" viewBox="0 0 70 70" fill="none" xmlns="http://www.w3.org/2000/svg">
<circle cx="35" cy="35" r="35" fill="#00CBD8" fill-opacity="0.2"/>
<g clip-path="url(#clip0_91_49780)">
<path d="M17.75 35C17.75 37.2653 18.1962 39.5084 19.0631 41.6013C19.93 43.6942 21.2006 45.5958 22.8024 47.1976C24.4042 48.7994 26.3058 50.07 28.3987 50.9369C30.4916 51.8038 32.7347 52.25 35 52.25C37.2653 52.25 39.5084 51.8038 41.6013 50.9369C43.6942 50.07 45.5958 48.7994 47.1976 47.1976C48.7994 45.5958 50.07 43.6942 50.9369 41.6013C51.8038 39.5084 52.25 37.2653 52.25 35C52.25 32.7347 51.8038 30.4916 50.9369 28.3987C50.07 26.3058 48.7994 24.4042 47.1976 22.8024C45.5958 21.2006 43.6942 19.93 41.6013 19.0631C39.5084 18.1962 37.2653 17.75 35 17.75C32.7347 17.75 30.4916 18.1962 28.3987 19.0631C26.3058 19.93 24.4042 21.2006 22.8024 22.8024C21.2006 24.4042 19.93 26.3058 19.0631 28.3987C18.1962 30.4916 17.75 32.7347 17.75 35Z" stroke="black" stroke-width="3.13636" stroke-linecap="round" stroke-linejoin="round"/>
<path d="M35 17.75V25.4167" stroke="black" stroke-width="3.13636" stroke-linecap="round" stroke-linejoin="round"/>
<path d="M35 52.25V46.5" stroke="black" stroke-width="3.13636" stroke-linecap="round" stroke-linejoin="round"/>
<path d="M17.75 35H25.4167" stroke="black" stroke-width="3.13636" stroke-linecap="round" stroke-linejoin="round"/>
<path d="M52.25 35H46.5" stroke="black" stroke-width="3.13636" stroke-linecap="round" stroke-linejoin="round"/>
<path d="M35 35V35.0173" stroke="black" stroke-width="3.13636" stroke-linecap="round" stroke-linejoin="round"/>
</g>
<defs>
<clipPath id="clip0_91_49780">
<rect width="46" height="46" fill="white" transform="translate(12 12)"/>
</clipPath>
</defs>
</svg>
