<svg width="35" height="26" viewBox="0 0 35 26" fill="none" xmlns="http://www.w3.org/2000/svg">
<path d="M34.0806 18.1995C33.9594 17.903 33.8388 17.5822 33.7183 17.3099C33.5246 16.8658 33.3316 16.4453 33.163 16.0504L33.1393 16.0255C31.4727 12.3191 29.687 8.56682 27.8037 4.86242L27.7319 4.71349C27.5343 4.32937 27.3415 3.94233 27.1536 3.55237C26.9118 3.1076 26.6701 2.63925 26.2841 2.19447C25.9198 1.71799 25.4544 1.33248 24.9231 1.06711C24.3918 0.801737 23.8084 0.663452 23.2171 0.662712C22.0097 0.662712 20.9235 1.20655 20.1265 2.14528C19.7953 2.56883 19.5043 3.02375 19.2576 3.50385C19.0692 3.89336 18.8762 4.28018 18.6786 4.6643L18.6062 4.81323C18.1354 5.75264 17.6677 6.69429 17.2031 7.6382C16.7464 6.71182 16.2835 5.78678 15.8145 4.8631L15.7434 4.71349C15.5458 4.32937 15.3528 3.94233 15.1644 3.55237C14.9226 3.1076 14.6816 2.63925 14.2956 2.19447C13.9312 1.71794 13.4657 1.3324 12.9342 1.06703C12.4028 0.801658 11.8193 0.6634 11.2279 0.662712C10.0205 0.662712 8.9343 1.20655 8.13792 2.14528C7.77563 2.59005 7.51017 3.05908 7.26842 3.50385C7.08047 3.89336 6.88769 4.28018 6.69008 4.6643L6.61696 4.81323C4.75808 8.51965 2.94728 12.2719 1.2814 15.977L1.25637 16.0262C1.08774 16.4217 0.894741 16.8416 0.70108 17.2857C0.580755 17.5552 0.460211 17.8515 0.339448 18.1745C0.0259013 19.0877 -0.0702705 19.9523 0.0502736 20.8418C0.179632 21.7455 0.537206 22.599 1.08767 23.3181C1.63813 24.0371 2.36244 24.5968 3.18903 24.9418C3.80797 25.208 4.47336 25.3426 5.14474 25.3374C5.35454 25.3332 5.56392 25.3165 5.77183 25.2875C6.62362 25.178 7.445 24.8935 8.18667 24.4512C9.17473 23.8831 10.118 23.0677 11.1805 21.8823L12.0546 20.9247C12.1892 21.7729 12.5255 22.5742 13.0337 23.2583C13.5419 23.9424 14.2066 24.4884 14.9694 24.8481C15.0386 24.8811 15.1084 24.9121 15.1795 24.9418C15.7985 25.208 16.4639 25.3426 17.1353 25.3374H17.2183C17.8881 25.3443 18.5521 25.2097 19.1687 24.9418C19.2444 24.9108 19.3189 24.8784 19.392 24.8427C20.1595 24.4795 20.8271 23.9274 21.3353 23.2358C21.8435 22.5443 22.1763 21.7348 22.3042 20.8796L23.169 21.8796C24.2309 23.065 25.1966 23.8804 26.1622 24.4485C26.9038 24.8915 27.7251 25.1768 28.5771 25.2875C28.7852 25.3168 28.9948 25.3335 29.2048 25.3374C29.8753 25.3446 30.54 25.2099 31.1572 24.9418C31.9844 24.5977 32.7093 24.0383 33.2599 23.3191C33.8105 22.5999 34.1677 21.7459 34.296 20.8418C34.4903 19.9772 34.3941 19.1133 34.0806 18.1995ZM13.4379 15.6063C13.3813 15.7297 13.3259 15.853 13.2706 15.9763L13.2462 16.0255C13.1039 16.3584 12.9445 16.7081 12.7851 17.0754C12.3225 17.9205 11.7938 18.726 11.2042 19.4839L10.1898 20.7643C9.20174 21.9012 8.30655 22.6667 7.43771 23.1607C6.87597 23.5017 6.25141 23.7204 5.6032 23.8029C4.98099 23.8737 4.35126 23.7891 3.76804 23.5563C3.18679 23.3131 2.67804 22.9182 2.29257 22.4111C1.9071 21.9039 1.65838 21.3022 1.57124 20.6659C1.49183 20.0152 1.56638 19.3544 1.78861 18.7393C1.86107 18.4926 1.98227 18.2453 2.10282 17.9495C2.27145 17.5539 2.46445 17.1334 2.65745 16.7135L2.68248 16.665C4.3477 12.9876 6.13347 9.23398 7.99235 5.58214L8.06481 5.43321C8.25847 5.06324 8.45147 4.66767 8.64447 4.29703C8.82666 3.90727 9.05377 3.54121 9.32097 3.20666C9.55892 2.92025 9.85489 2.69019 10.1884 2.53242C10.5219 2.37464 10.8849 2.29292 11.2523 2.29292C11.6197 2.29292 11.9828 2.37464 12.3162 2.53242C12.6497 2.69019 12.9457 2.92025 13.1836 3.20666C13.4497 3.54073 13.6765 3.90555 13.8595 4.29366C14.0531 4.6643 14.2461 5.05988 14.4385 5.42984L14.5109 5.57877C15.1376 6.83357 15.7559 8.09285 16.3659 9.35663C15.9021 10.3136 15.4454 11.2709 14.9958 12.2288C14.4648 13.3569 13.9456 14.4827 13.4379 15.6063ZM20.8359 20.6444C20.7492 21.2804 20.501 21.882 20.116 22.3892C19.731 22.8964 19.2226 23.2914 18.6417 23.5347C18.0607 23.7764 17.4288 23.8613 16.8066 23.7813C16.2516 23.7116 15.7135 23.5404 15.2177 23.2759C14.7718 22.9923 14.3922 22.6117 14.1061 22.1612C13.8199 21.7108 13.6341 21.2014 13.5617 20.6693C13.482 20.0185 13.5566 19.3577 13.7791 18.7426C13.8628 18.4942 13.9591 18.2503 14.0676 18.0121C14.0762 17.9926 14.0848 17.973 14.0927 17.9528C14.262 17.5573 14.4543 17.1367 14.648 16.7169L14.6723 16.6684C14.7369 16.5255 14.8028 16.3824 14.8699 16.2391C15.6354 14.5544 16.4252 12.8575 17.2354 11.162C17.9665 12.6985 18.6854 14.2406 19.392 15.7883L19.803 16.6926V16.7176C19.9967 17.1132 20.1653 17.5573 20.359 17.9528C20.4163 18.0943 20.4743 18.2224 20.5256 18.3484C20.5821 18.477 20.6311 18.6089 20.6725 18.7433C20.8603 19.3849 20.9327 20.0035 20.8359 20.6444ZM32.8244 20.6444C32.7376 21.2803 32.4893 21.8819 32.1043 22.389C31.7193 22.8962 31.2111 23.2912 30.6303 23.5347C30.0493 23.7764 29.4174 23.8613 28.7951 23.7813C28.147 23.6984 27.5225 23.4798 26.9606 23.1391C26.0917 22.6445 25.2229 21.8796 24.2085 20.7434L23.1947 19.4839C22.652 18.7936 22.161 18.0623 21.7258 17.2965C21.5341 16.8571 21.3431 16.4413 21.1764 16.0504L21.1521 16.0255L20.9386 15.5538C20.438 14.4463 19.9271 13.3358 19.4058 12.222C18.9693 11.2889 18.5254 10.3553 18.0739 9.42132C18.6997 8.13418 19.3364 6.85378 19.9842 5.58012L20.0566 5.43119C20.2496 5.06122 20.4426 4.66565 20.6356 4.295C20.8174 3.90622 21.0436 3.54089 21.3095 3.20666C21.5475 2.92025 21.8434 2.69019 22.1769 2.53242C22.5104 2.37464 22.8734 2.29292 23.2408 2.29292C23.6083 2.29292 23.9713 2.37464 24.3048 2.53242C24.6383 2.69019 24.9342 2.92025 25.1722 3.20666C25.4384 3.54056 25.6653 3.90541 25.848 4.29366C26.0417 4.6643 26.2347 5.05988 26.4277 5.42984L26.5001 5.58214C28.3314 9.24993 30.0936 12.9534 31.787 16.6926V16.7176C31.9806 17.1132 32.1492 17.5573 32.3429 17.9528C32.4634 18.2493 32.584 18.496 32.6565 18.7433C32.8495 19.3849 32.9219 20.0035 32.8251 20.6444H32.8244Z" fill="url(#paint0_linear_175_1273)"/>
<defs>
<linearGradient id="paint0_linear_175_1273" x1="0.000211583" y1="13.0004" x2="192" y2="13.0004" gradientUnits="userSpaceOnUse">
<stop stop-color="#00CBD8"/>
<stop offset="1" stop-color="#B844FF"/>
</linearGradient>
</defs>
</svg>
